<svg width="180" height="80" viewBox="0 0 180 80" fill="none" xmlns="http://www.w3.org/2000/svg">
<g clip-path="url(#clip0_48_514)">
<path fill-rule="evenodd" clip-rule="evenodd" d="M126.995 31.5993V29.9041L129.82 31.5993V46.2914H126.995V31.5993ZM83.9905 44.4743L82.6236 42.3279C81.7123 43.1456 80.8802 43.6362 79.6717 43.6362C77.6707 43.6362 76.284 41.9599 76.284 39.1184V38.9139C76.284 36.1337 77.6906 34.437 79.6519 34.437C80.7614 34.437 81.6529 34.9276 82.5444 35.7044L83.8914 33.3126C82.8414 32.3314 81.633 31.6772 79.5925 31.6772C75.9472 31.6772 73.3123 34.6005 73.3123 38.9548V39.1388C73.3123 43.5135 75.9472 46.3959 79.4537 46.3959C81.5339 46.3959 82.8216 45.6804 83.9905 44.4743ZM109.099 31.6772V34.5477H105.924V31.6772H109.099ZM109.099 35.64V46.3959H105.924V35.64H109.099ZM93.5143 46.3959V39.3983C93.5143 36.507 92.0845 34.8519 89.0613 34.8519C87.4682 34.8519 86.4468 35.1452 85.3846 35.6271L85.9362 38.0365C86.8144 37.6803 87.5703 37.4498 88.5915 37.4498C89.9805 37.4498 90.6954 38.1412 90.6954 39.4192V39.7335C90.0213 39.4611 89.3268 39.2935 88.3872 39.2935C86.1403 39.2935 84.5675 40.4039 84.5675 42.8762V43.0228C84.5675 45.1808 86.0177 46.3959 87.8358 46.3959C89.1227 46.3959 90.0649 45.8723 90.7184 45.0132V46.3959H93.5143ZM90.7158 42.5409C90.7158 43.5676 89.9191 44.259 88.7754 44.259C87.9584 44.259 87.366 43.798 87.366 42.8762V42.7295C87.366 41.7239 88.0401 41.221 89.1023 41.221C89.7151 41.221 90.3074 41.3677 90.7158 41.5772V42.5409ZM126.127 46.3959V39.3983C126.127 36.507 124.651 34.8519 121.53 34.8519C119.885 34.8519 118.831 35.1452 117.735 35.6271L118.304 38.0365C119.211 37.6803 119.991 37.4498 121.045 37.4498C122.479 37.4498 123.217 38.1412 123.217 39.4192V39.7335C122.521 39.4611 121.804 39.2935 120.834 39.2935C118.515 39.2935 116.891 40.4039 116.891 42.8762V43.0228C116.891 45.1808 118.388 46.3959 120.265 46.3959C121.594 46.3959 122.566 45.8723 123.241 45.0132V46.3959H126.127ZM123.238 42.5409C123.238 43.5676 122.416 44.259 121.235 44.259C120.391 44.259 119.78 43.798 119.78 42.8762V42.7295C119.78 41.7239 120.476 41.221 121.572 41.221C122.205 41.221 122.816 41.3677 123.238 41.5772V42.5409ZM134.533 34.5477V31.6772H131.358V34.5477H134.533ZM134.533 46.3959V35.64H131.358V46.3959H134.533ZM140.813 39.4987C142.357 40.2905 143.753 41.0615 143.753 42.9369C143.753 45.229 142.018 46.3959 139.776 46.3959C138.443 46.3959 136.942 45.9793 135.672 45.0623L136.645 42.8744C137.745 43.6246 138.845 44.0205 139.776 44.0205C140.58 44.0205 141.003 43.6871 141.003 43.1453C141.003 42.6204 140.421 42.3599 139.521 41.9567C139.349 41.8798 139.165 41.7977 138.972 41.7075C137.512 41.0407 136.032 40.2072 136.032 38.2276C136.032 36.0813 137.724 34.8519 139.903 34.8519C141.109 34.8519 142.378 35.2061 143.436 35.8521L142.569 38.1026C141.616 37.5608 140.665 37.2274 139.903 37.2274C139.184 37.2274 138.803 37.54 138.803 38.0192C138.803 38.4894 139.364 38.7704 140.253 39.215C140.427 39.3024 140.615 39.396 140.813 39.4987ZM146.838 32.447L145.426 31.5994V33.2945V35.5667H144.325V37.8339H145.426V43.4335C145.426 45.6674 146.58 46.2914 148.251 46.2914C149.127 46.2914 149.841 46.0901 150.391 45.7681V43.4737C150.024 43.675 149.596 43.7756 149.148 43.7756C148.536 43.7756 148.251 43.4737 148.251 42.8498V37.8339H149.946V35.5667H148.251V33.2946L146.838 32.447ZM116.314 43.5178V45.8613C115.738 46.1902 114.991 46.3959 114.074 46.3959C112.324 46.3959 111.117 45.7587 111.117 43.4767V37.7569H109.964V35.4412H111.117V33.1202H111.119V31.6772L112.562 32.3987L114.005 33.1202H114.074V35.4412H115.879V37.7569H114.074V42.8805C114.074 43.5178 114.372 43.8262 115.012 43.8262C115.482 43.8262 115.93 43.7234 116.314 43.5178ZM104.957 40.7865V40.4622C104.957 36.7531 102.931 34.9898 100.719 34.9898C99.2516 34.9898 98.2524 35.7802 97.6114 36.6923V34.9898H94.7861V48.5518H94.7856L97.6111 50.2471V48.8845L97.6114 44.678C98.2524 45.4685 99.231 46.259 100.719 46.259C102.952 46.259 104.957 44.4956 104.957 40.7865ZM102.132 40.746C102.132 42.6107 101.071 43.7457 99.8511 43.7457C98.6519 43.7457 97.5907 42.5904 97.5907 40.746V40.5028C97.5907 38.6583 98.6519 37.503 99.8511 37.503C101.071 37.503 102.132 38.6583 102.132 40.5028V40.746Z" fill="#333333"/>
<path d="M46.688 60C57.7337 60 66.688 51.0457 66.688 40C66.688 28.9543 57.7337 20 46.688 20C35.6423 20 26.688 28.9543 26.688 40C26.688 51.0457 35.6423 60 46.688 60Z" fill="#80BD1C"/>
<path d="M52.318 26.7991H41.0583L41.8978 33.6602H51.4682L52.318 26.7991Z" fill="white"/>
<path d="M51.2863 35.1272H42.0845L42.4693 38.2041C42.6479 38.3093 42.7658 38.4081 42.9524 38.5002C44.1095 39.0711 45.3836 39.3691 46.6755 39.3711C47.9674 39.3732 49.2424 39.0791 50.4013 38.5118C50.5937 38.4176 50.7139 38.3163 50.8978 38.2082L51.2863 35.1272Z" fill="white"/>
<path d="M53.3663 37.6417C52.5808 38.6607 51.5692 39.486 50.4103 40.0533C49.2514 40.6206 47.9764 40.9147 46.6845 40.9126C45.3926 40.9106 44.1185 40.6126 42.9614 40.0416C41.8043 39.4707 40.7954 38.6423 40.013 37.6208L38.6626 38.6419C39.603 39.8697 40.8158 40.8655 42.2066 41.5517C43.5975 42.238 45.1289 42.5963 46.6818 42.5987C48.2348 42.6011 49.7673 42.2476 51.1603 41.5657C52.5533 40.8838 53.7693 39.8918 54.7136 38.6669L53.3663 37.6417Z" fill="white"/>
<path fill-rule="evenodd" clip-rule="evenodd" d="M45.9444 46.2901C45.7293 47.4675 44.6923 48.3602 43.4454 48.3602C42.0427 48.3602 40.9055 47.2303 40.9055 45.8366C40.9055 44.4428 42.0427 43.313 43.4454 43.313C44.5898 43.313 45.5574 44.0649 45.875 45.0986C45.9764 45.0436 46.0826 44.9987 46.1921 44.9643C46.3622 44.9109 46.5402 44.883 46.7203 44.8822C46.9005 44.8814 47.0788 44.9078 47.2493 44.9597C47.3634 44.9944 47.474 45.0405 47.5794 45.0975C47.8974 44.0644 48.8647 43.313 50.0086 43.313C51.4114 43.313 52.5486 44.4428 52.5486 45.8366C52.5486 47.2303 51.4114 48.3602 50.0086 48.3602C48.7588 48.3602 47.7198 47.4631 47.5081 46.2817C47.4381 46.1355 47.3278 46.0119 47.19 45.9255C47.0507 45.8379 46.8892 45.7918 46.7244 45.7926C46.5597 45.7933 46.3985 45.8407 46.2601 45.9296C46.1226 46.0175 46.0131 46.1429 45.9444 46.2901ZM43.4454 47.0489C44.1193 47.0489 44.6655 46.5059 44.6655 45.8366C44.6655 45.1671 44.1193 44.6244 43.4454 44.6244C42.7716 44.6244 42.2254 45.1671 42.2254 45.8366C42.2254 46.5059 42.7716 47.0489 43.4454 47.0489ZM50.0086 47.0489C50.6824 47.0489 51.2287 46.5059 51.2287 45.8366C51.2287 45.1671 50.6824 44.6244 50.0086 44.6244C49.3348 44.6244 48.7885 45.1671 48.7885 45.8366C48.7885 46.5059 49.3348 47.0489 50.0086 47.0489Z" fill="white"/>
<path d="M43.7139 52.3568C44.7306 52.3568 46.2932 51.6954 46.7674 51.0113C47.2416 51.6954 48.8043 52.3568 49.8209 52.3568C50.8629 52.3568 51.5357 52.1461 52.2439 51.5993C52.699 51.2487 53.248 50.4447 53.248 49.6582C53.1423 49.731 53.0455 49.8006 52.9537 49.8666C52.4447 50.2329 52.0999 50.4813 51.2899 50.4813C50.2038 50.4813 49.5106 49.8429 48.9332 49.3112C48.521 48.9315 48.1679 48.6064 47.773 48.6064C47.4024 48.6064 47.1821 48.8332 46.9777 49.0439C46.9076 49.1163 46.8393 49.1866 46.7674 49.2452C46.6956 49.1866 46.6273 49.1163 46.5572 49.0439C46.3527 48.8332 46.1325 48.6064 45.7619 48.6064C45.367 48.6064 45.0138 48.9315 44.6017 49.3112C44.0242 49.8429 43.331 50.4813 42.2449 50.4813C41.435 50.4813 41.0901 50.2329 40.581 49.8666C40.4895 49.8008 40.3926 49.731 40.2869 49.6582C40.2869 50.4447 40.836 51.2487 41.2908 51.5993C41.9992 52.1461 42.6719 52.3568 43.7139 52.3568Z" fill="white"/>
</g>
<defs>
<clipPath id="clip0_48_514">
<rect width="126.624" height="40" fill="white" transform="translate(26.688 20)"/>
</clipPath>
</defs>
</svg>
