<svg width="180" height="80" viewBox="0 0 180 80" fill="none" xmlns="http://www.w3.org/2000/svg">
<path d="M55.3743 39.3791H53.7041C53.6465 39.3791 53.5912 39.4018 53.5505 39.4422C53.5097 39.4827 53.4868 39.5375 53.4868 39.5947V45.0795C53.4868 45.1096 53.4809 45.1394 53.4693 45.1672C53.4577 45.195 53.4407 45.2203 53.4192 45.2415C53.3978 45.2628 53.3723 45.2797 53.3443 45.2912C53.3163 45.3027 53.2863 45.3086 53.256 45.3086H49.8749C49.8446 45.3086 49.8146 45.3027 49.7865 45.2912C49.7585 45.2797 49.7331 45.2628 49.7117 45.2415C49.6902 45.2203 49.6732 45.195 49.6616 45.1672C49.65 45.1394 49.644 45.1096 49.644 45.0795V29.7975C49.644 29.7367 49.6684 29.6784 49.7117 29.6355C49.7549 29.5925 49.8137 29.5684 49.8749 29.5684H55.4693C58.9455 29.5684 61.6749 30.8217 61.6749 34.4198C61.6749 38.018 58.7011 39.3791 55.3743 39.3791ZM55.1435 32.6409H53.7041C53.6465 32.6409 53.5912 32.6637 53.5505 32.7041C53.5097 32.7445 53.4868 32.7994 53.4868 32.8566V36.1313C53.4868 36.1885 53.5097 36.2433 53.5505 36.2838C53.5912 36.3242 53.6465 36.3469 53.7041 36.3469H55.062C56.5013 36.3469 57.7777 35.9292 57.7777 34.4333C57.7777 32.9374 56.5285 32.6409 55.157 32.6409H55.1435Z" fill="black"/>
<path d="M76.4893 45.1741L75.3622 42.3576C75.3459 42.3174 75.3177 42.2831 75.2813 42.259C75.245 42.235 75.2022 42.2224 75.1586 42.2228H69.3197C69.276 42.2224 69.2332 42.235 69.1969 42.259C69.1606 42.2831 69.1324 42.3174 69.116 42.3576L68.0568 45.1741C68.0405 45.2143 68.0123 45.2487 67.9759 45.2727C67.9396 45.2967 67.8968 45.3093 67.8532 45.3089H64.1597C64.124 45.3093 64.0886 45.3009 64.0569 45.2844C64.0252 45.268 63.9981 45.2441 63.9779 45.2147C63.9578 45.1854 63.9452 45.1516 63.9414 45.1163C63.9376 45.081 63.9426 45.0453 63.956 45.0124L70.4331 29.7034C70.4495 29.6632 70.4777 29.6289 70.514 29.6048C70.5504 29.5808 70.5931 29.5682 70.6368 29.5686H74.0722C74.1159 29.5682 74.1587 29.5808 74.195 29.6048C74.2314 29.6289 74.2596 29.6632 74.2759 29.7034L80.6851 45.0259C80.6985 45.0588 80.7036 45.0945 80.6997 45.1298C80.6959 45.1651 80.6834 45.1989 80.6632 45.2282C80.6431 45.2576 80.6159 45.2815 80.5842 45.2979C80.5525 45.3143 80.5172 45.3227 80.4814 45.3224H76.693C76.6477 45.3218 76.6037 45.3072 76.5672 45.2806C76.5307 45.2541 76.5034 45.2168 76.4893 45.1741ZM72.0762 34.3123L70.3788 38.8807C70.3681 38.9129 70.3653 38.9471 70.3704 38.9806C70.3755 39.0141 70.3886 39.0459 70.4084 39.0734C70.4282 39.101 70.4543 39.1235 70.4846 39.1392C70.5148 39.1549 70.5484 39.1633 70.5825 39.1637H73.95C73.9842 39.1633 74.0177 39.1549 74.048 39.1392C74.0782 39.1235 74.1043 39.101 74.1241 39.0734C74.144 39.0459 74.157 39.0141 74.1621 38.9806C74.1673 38.9471 74.1644 38.9129 74.1537 38.8807L72.4835 34.3123C72.4668 34.2715 72.4378 34.2367 72.4005 34.2128C72.3633 34.1888 72.3195 34.1767 72.2751 34.1782C72.2307 34.1797 72.1879 34.1946 72.1523 34.221C72.1167 34.2473 72.0902 34.2839 72.0762 34.3257V34.3123Z" fill="black"/>
<path d="M94.7663 45.2146L91.5482 40.0531C91.5286 40.0225 91.5015 39.9973 91.4694 39.9799C91.4374 39.9624 91.4014 39.9533 91.3649 39.9533C91.3283 39.9533 91.2923 39.9624 91.2603 39.9799C91.2282 39.9973 91.2012 40.0225 91.1815 40.0531L88.0856 45.2146C88.0663 45.2476 88.0386 45.275 88.0052 45.294C87.9718 45.3129 87.9339 45.3227 87.8955 45.3224H83.8218C83.7826 45.3218 83.7443 45.3107 83.7109 45.2903C83.6775 45.2698 83.6503 45.2408 83.6322 45.2062C83.6141 45.1717 83.6057 45.1329 83.608 45.0941C83.6104 45.0552 83.6232 45.0177 83.6453 44.9855L88.9003 37.1153C88.9248 37.0796 88.9379 37.0373 88.9379 36.994C88.9379 36.9508 88.9248 36.9085 88.9003 36.8727L84.1477 29.9055C84.1257 29.8733 84.1128 29.8358 84.1105 29.7969C84.1081 29.7581 84.1165 29.7193 84.1346 29.6847C84.1527 29.6502 84.1799 29.6211 84.2133 29.6007C84.2467 29.5803 84.285 29.5692 84.3243 29.5686H88.3979C88.4364 29.5683 88.4742 29.5781 88.5076 29.597C88.541 29.616 88.5688 29.6434 88.588 29.6764L91.3038 34.1505C91.3234 34.1812 91.3505 34.2064 91.3825 34.2238C91.4145 34.2413 91.4505 34.2504 91.4871 34.2504C91.5236 34.2504 91.5596 34.2413 91.5916 34.2238C91.6237 34.2064 91.6508 34.1812 91.6704 34.1505L94.3861 29.6764C94.4054 29.6434 94.4331 29.616 94.4665 29.597C94.4999 29.5781 94.5378 29.5683 94.5762 29.5686H98.5005C98.5397 29.5692 98.5781 29.5803 98.6115 29.6007C98.6449 29.6211 98.6721 29.6502 98.6902 29.6847C98.7083 29.7193 98.7166 29.7581 98.7143 29.7969C98.712 29.8358 98.6991 29.8733 98.677 29.9055L93.9109 36.8593C93.8864 36.895 93.8733 36.9373 93.8733 36.9806C93.8733 37.0238 93.8864 37.0661 93.9109 37.1018L99.3424 44.9585C99.3645 44.9907 99.3774 45.0282 99.3797 45.0671C99.382 45.106 99.3736 45.1447 99.3555 45.1793C99.3374 45.2138 99.3102 45.2429 99.2768 45.2633C99.2435 45.2838 99.2051 45.2949 99.1659 45.2954H95.0108C94.9667 45.3096 94.9191 45.3094 94.8752 45.2948C94.8312 45.2803 94.7931 45.2521 94.7663 45.2146Z" fill="black"/>
<path d="M110.776 45.7402C106.607 45.7402 103.986 43.1527 103.986 39.3794V29.7843C103.986 29.7271 104.009 29.6722 104.05 29.6318C104.091 29.5914 104.146 29.5686 104.204 29.5686H107.571C107.629 29.5686 107.684 29.5914 107.725 29.6318C107.765 29.6722 107.788 29.7271 107.788 29.7843V39.0559C107.761 39.4612 107.817 39.8677 107.955 40.2504C108.092 40.633 108.307 40.9835 108.587 41.2803C108.866 41.577 109.204 41.8135 109.579 41.9753C109.955 42.137 110.36 42.2205 110.769 42.2205C111.178 42.2205 111.583 42.137 111.959 41.9753C112.334 41.8135 112.672 41.577 112.951 41.2803C113.231 40.9835 113.446 40.633 113.583 40.2504C113.72 39.8677 113.777 39.4612 113.749 39.0559V29.7843C113.748 29.7508 113.755 29.7175 113.769 29.6871C113.783 29.6567 113.805 29.6299 113.831 29.609C113.857 29.5881 113.888 29.5735 113.921 29.5665C113.954 29.5595 113.988 29.5603 114.021 29.5686H117.416C117.473 29.5686 117.529 29.5914 117.569 29.6318C117.61 29.6722 117.633 29.7271 117.633 29.7843V39.3794C117.606 43.1527 114.917 45.7402 110.776 45.7402Z" fill="black"/>
<path d="M138.463 45.3089C138.402 45.3089 138.343 45.2847 138.3 45.2418C138.256 45.1988 138.232 45.1405 138.232 45.0798L138.327 34.164L134.254 45.1606C134.237 45.2044 134.207 45.2421 134.168 45.2686C134.13 45.2951 134.083 45.3091 134.036 45.3089H131.674C131.626 45.3091 131.58 45.2951 131.542 45.2686C131.503 45.2421 131.473 45.2044 131.456 45.1606L127.437 34.164L127.518 45.0798C127.518 45.1099 127.513 45.1397 127.501 45.1675C127.489 45.1953 127.472 45.2205 127.451 45.2418C127.429 45.2631 127.404 45.2799 127.376 45.2914C127.348 45.303 127.318 45.3089 127.288 45.3089H124.069C124.039 45.3089 124.009 45.303 123.981 45.2914C123.953 45.2799 123.928 45.2631 123.906 45.2418C123.885 45.2205 123.868 45.1953 123.856 45.1675C123.845 45.1397 123.839 45.1099 123.839 45.0798V29.7977C123.839 29.7369 123.863 29.6787 123.906 29.6357C123.95 29.5927 124.008 29.5686 124.069 29.5686H129.121C129.168 29.5683 129.214 29.5824 129.253 29.6089C129.292 29.6354 129.321 29.6731 129.338 29.7168L132.896 39.6623H133.031L136.426 29.7168C136.443 29.6731 136.473 29.6354 136.511 29.6089C136.55 29.5824 136.596 29.5683 136.643 29.5686H141.79C141.851 29.5686 141.91 29.5927 141.953 29.6357C141.996 29.6787 142.021 29.7369 142.021 29.7977V45.0933C142.021 45.154 141.996 45.2123 141.953 45.2553C141.91 45.2982 141.851 45.3224 141.79 45.3224L138.463 45.3089Z" fill="black"/>
<path d="M37.9797 31.4687H42.1213C42.139 28.9901 43.139 26.6181 44.905 24.8654C46.671 23.1128 49.0611 22.1203 51.5585 22.1027V17.9924C47.9572 17.9924 44.5034 19.4122 41.9569 21.9395C39.4104 24.4668 37.9797 27.8946 37.9797 31.4687V31.4687Z" fill="#FF5252"/>
<g opacity="0.33">
<path opacity="0.33" d="M49.644 53.9065H51.6265C52.9844 53.9065 53.9214 54.3916 53.9214 55.6584C53.9214 56.9252 52.9165 57.4373 51.5587 57.4373H50.7303V59.9304H49.644V53.9065ZM51.4772 56.6017C52.1833 56.6017 52.8351 56.4266 52.8351 55.7123C52.8351 54.9981 52.1969 54.8633 51.4772 54.8633H50.7303V56.5344L51.4772 56.6017Z" fill="black"/>
<path opacity="0.33" d="M57.5605 59.4182C57.4181 59.6204 57.2263 59.7834 57.003 59.8918C56.7797 60.0003 56.5323 60.0506 56.2841 60.0381C56.0972 60.0646 55.9067 60.052 55.725 60.0014C55.5432 59.9507 55.3741 59.8629 55.2284 59.7437C55.0827 59.6245 54.9637 59.4765 54.8789 59.309C54.7942 59.1416 54.7455 58.9585 54.7361 58.7713C54.7361 57.545 56.2841 57.4237 57.5741 57.4237V57.3159C57.5741 56.8173 57.1395 56.5612 56.6235 56.5612C56.201 56.57 55.7978 56.7387 55.4965 57.0329L54.9669 56.413C55.4372 55.9814 56.051 55.7368 56.6914 55.7257C56.9323 55.6897 57.1782 55.7088 57.4105 55.7813C57.6428 55.8538 57.8554 55.978 58.0321 56.1442C58.2088 56.3105 58.345 56.5146 58.4304 56.741C58.5157 56.9674 58.5479 57.2101 58.5246 57.4506V59.9438H57.5605V59.4182ZM57.5605 58.0706H57.3296C56.6779 58.0706 55.7545 58.1514 55.7545 58.7578C55.7545 59.1487 56.1211 59.2699 56.4742 59.2699C56.6185 59.2865 56.7648 59.271 56.9023 59.2245C57.0399 59.1779 57.1652 59.1015 57.2693 59.0008C57.3733 58.9002 57.4535 58.7777 57.5038 58.6424C57.5542 58.5072 57.5736 58.3624 57.5605 58.2188V58.0706Z" fill="black"/>
<path opacity="0.33" d="M59.7058 55.8472H60.8464L62.0006 58.8254L63.019 55.8472H64.0918L62.1364 60.8199C62.062 61.1692 61.8631 61.4801 61.5762 61.6955C61.2893 61.9109 60.9338 62.0163 60.5749 61.9923C60.3989 62.0126 60.2212 62.0126 60.0453 61.9923L60.1268 61.1029C60.2529 61.1206 60.3809 61.1206 60.507 61.1029C60.9415 61.1029 61.0637 60.8873 61.2402 60.4561L61.4439 59.9305L59.7058 55.8472Z" fill="black"/>
<path opacity="0.33" d="M67.5681 53.9065H68.7495L69.9308 58.3402L71.2887 53.9065H72.4022L73.76 58.3402L74.9686 53.9065H76.1228L74.3439 59.9439H73.2848L71.859 55.4158L70.4332 59.9439H69.3469L67.5681 53.9065Z" fill="black"/>
<path opacity="0.33" d="M77.9423 53.839C78.0646 53.8443 78.1825 53.8851 78.2816 53.9563C78.3807 54.0276 78.4565 54.1261 78.4997 54.2398C78.5428 54.3534 78.5514 54.4771 78.5243 54.5955C78.4972 54.714 78.4357 54.8219 78.3473 54.9059C78.259 54.9899 78.1477 55.0463 78.0274 55.0682C77.907 55.09 77.7828 55.0762 77.6703 55.0286C77.5577 54.981 77.4617 54.9016 77.3942 54.8004C77.3267 54.6991 77.2906 54.5804 77.2905 54.4589C77.2923 54.3757 77.3105 54.2937 77.3443 54.2175C77.378 54.1414 77.4265 54.0725 77.487 54.015C77.5475 53.9574 77.6189 53.9122 77.697 53.882C77.7751 53.8518 77.8585 53.8372 77.9423 53.839ZM77.4399 55.847H78.4719V59.8899H77.4399V55.847Z" fill="black"/>
<path opacity="0.33" d="M79.7754 56.6691V55.847H80.4951V54.6611H81.5135V55.847H82.5455V56.6691H81.5135V58.5693C81.5135 58.9331 81.595 59.2026 82.0566 59.2026C82.2056 59.2059 82.3535 59.1784 82.4912 59.1218V59.9304C82.2679 60.004 82.0339 60.0404 81.7986 60.0382C80.7123 60.0382 80.4408 59.3778 80.4408 58.5827V56.6691H79.7754Z" fill="black"/>
<path opacity="0.33" d="M87.7598 57.3834V59.9439H86.7278V57.6934C86.7278 57.2082 86.6192 56.6153 85.9674 56.6153C85.8281 56.6182 85.6909 56.6498 85.5646 56.7082C85.4383 56.7666 85.3255 56.8504 85.2336 56.9543C85.1417 57.0582 85.0725 57.18 85.0305 57.3119C84.9885 57.4437 84.9747 57.5828 84.9897 57.7203V59.9574H83.9578V53.4888H84.9897V56.4131C85.112 56.1968 85.2921 56.0182 85.5101 55.8969C85.7282 55.7756 85.9757 55.7164 86.2254 55.7258C86.4401 55.7207 86.6534 55.7612 86.8511 55.8446C87.0487 55.928 87.2261 56.0523 87.3714 56.2093C87.5167 56.3662 87.6265 56.5522 87.6935 56.7547C87.7605 56.9572 87.7831 57.1715 87.7598 57.3834Z" fill="black"/>
<path opacity="0.33" d="M92.4717 53.9065H96.5453V54.8498H93.5444V56.3861H96.3688V57.289H93.5444V59.0005H96.6539V59.9573H92.4717V53.9065Z" fill="black"/>
<path opacity="0.33" d="M100.877 59.4182C100.734 59.6204 100.543 59.7834 100.319 59.8919C100.096 60.0003 99.8487 60.0506 99.6005 60.0381C99.4136 60.0646 99.2231 60.0521 99.0414 60.0014C98.8596 59.9507 98.6905 59.863 98.5448 59.7438C98.3991 59.6246 98.2801 59.4765 98.1954 59.3091C98.1106 59.1416 98.0619 58.9585 98.0525 58.7714C98.0525 57.545 99.6005 57.4237 100.89 57.4237V57.3159C100.89 56.8173 100.456 56.5613 99.9399 56.5613C99.5174 56.57 99.1142 56.7388 98.8129 57.0329L98.2833 56.413C98.7501 55.9845 99.3586 55.7401 99.9943 55.7257C100.233 55.6943 100.476 55.7167 100.705 55.7912C100.934 55.8658 101.142 55.9906 101.316 56.1563C101.49 56.3221 101.623 56.5245 101.707 56.7486C101.791 56.9727 101.823 57.2127 101.8 57.4507V59.9438H100.836L100.877 59.4182ZM100.877 58.0706H100.646C99.9943 58.0706 99.0709 58.1515 99.0709 58.7579C99.0709 59.1487 99.4375 59.27 99.7906 59.27C99.9349 59.2866 100.081 59.2711 100.219 59.2245C100.356 59.178 100.482 59.1016 100.586 59.0009C100.69 58.9002 100.77 58.7778 100.82 58.6425C100.871 58.5072 100.89 58.3625 100.877 58.2188V58.0706Z" fill="black"/>
<path opacity="0.33" d="M105.955 56.9387C105.849 56.8032 105.713 56.693 105.558 56.6161C105.403 56.5392 105.232 56.4975 105.059 56.494C104.733 56.494 104.394 56.6153 104.394 56.9387C104.394 57.2621 104.706 57.343 105.29 57.4778C105.874 57.6125 106.648 57.8955 106.648 58.7041C106.648 59.5127 105.833 60.0517 104.923 60.0517C104.609 60.0592 104.297 60.0034 104.005 59.8876C103.713 59.7718 103.448 59.5984 103.226 59.3779L103.905 58.7445C104.031 58.9034 104.192 59.0319 104.376 59.1205C104.559 59.2092 104.76 59.2557 104.964 59.2566C105.263 59.2566 105.63 59.1353 105.63 58.7715C105.63 58.4076 105.317 58.3268 104.679 58.1785C104.041 58.0303 103.457 57.7877 103.457 57.0196C103.457 56.2514 104.285 55.6719 105.1 55.6719C105.388 55.6583 105.675 55.7066 105.942 55.8136C106.21 55.9206 106.45 56.0838 106.648 56.2919L105.955 56.9387Z" fill="black"/>
<path opacity="0.33" d="M112.079 58.2191H108.943C108.976 58.5037 109.117 58.7654 109.335 58.9525C109.554 59.1396 109.835 59.2386 110.124 59.2298C110.335 59.2406 110.545 59.198 110.735 59.1061C110.925 59.0142 111.089 58.8759 111.21 58.7043L111.903 59.2568C111.612 59.6074 111.22 59.8617 110.779 59.9858C110.339 60.11 109.871 60.0981 109.438 59.9518C109.004 59.8055 108.626 59.5317 108.353 59.1668C108.08 58.8019 107.926 58.3633 107.911 57.9092C107.897 57.6201 107.945 57.3314 108.049 57.0614C108.154 56.7914 108.315 56.546 108.52 56.3407C108.726 56.1355 108.972 55.9749 109.244 55.869C109.515 55.7632 109.805 55.7145 110.097 55.726C110.383 55.717 110.667 55.7705 110.93 55.8826C111.193 55.9947 111.428 56.1627 111.619 56.3747C111.809 56.5868 111.95 56.8378 112.032 57.1099C112.114 57.382 112.135 57.6686 112.093 57.9496C112.093 58.0439 112.093 58.1248 112.079 58.2191ZM111.061 57.4914C111.071 57.3609 111.053 57.2297 111.007 57.1068C110.962 56.9838 110.89 56.872 110.798 56.7788C110.705 56.6856 110.593 56.6131 110.47 56.5664C110.347 56.5196 110.215 56.4996 110.083 56.5076C109.803 56.496 109.528 56.5914 109.316 56.7743C109.104 56.9573 108.97 57.2139 108.943 57.4914H111.061Z" fill="black"/>
</g>
</svg>
