<svg width="180" height="80" viewBox="0 0 180 80" fill="none" xmlns="http://www.w3.org/2000/svg">
<g clip-path="url(#clip0_48_537)">
<path d="M67.587 17.0002H85.9233C88.4829 17.0002 90.0749 19.0865 89.4778 21.6546L80.9409 58.3067C80.3384 60.8659 77.7757 62.9539 75.2143 62.9539H56.8798C54.3238 62.9539 52.7282 60.8659 53.3253 58.3067L61.8658 21.6546C62.4629 19.0865 65.0243 17.0002 67.587 17.0002Z" fill="#E21836"/>
<path d="M84.3976 17.0002H105.484C108.043 17.0002 106.889 19.0865 106.287 21.6546L97.7515 58.3067C97.1526 60.8659 97.3394 62.9539 94.7749 62.9539H73.6886C71.1241 62.9539 69.5371 60.8659 70.1395 58.3067L78.6746 21.6546C79.2807 19.0865 81.8367 17.0002 84.3976 17.0002Z" fill="#00447C"/>
<path d="M104.647 17.0002H122.984C125.547 17.0002 127.139 19.0865 126.537 21.6546L118.001 58.3067C117.399 60.8659 114.834 62.9539 112.272 62.9539H93.9439C91.3794 62.9539 89.7887 60.8659 90.3894 58.3067L98.9263 21.6546C99.5234 19.0865 102.083 17.0002 104.647 17.0002Z" fill="#007B84"/>
<path d="M72.3758 28.7461C70.4902 28.7653 69.9333 28.7461 69.7554 28.7041C69.6871 29.029 68.4146 34.8986 68.4111 34.9035C68.1371 36.091 67.9378 36.9375 67.2607 37.4841C66.8763 37.8019 66.4276 37.9552 65.9073 37.9552C65.0711 37.9552 64.584 37.54 64.5022 36.7525L64.4865 36.4821C64.4865 36.4821 64.7413 34.8914 64.7413 34.8825C64.7413 34.8825 66.0767 29.5336 66.3158 28.8266C66.3284 28.7863 66.3319 28.7653 66.3351 28.7461C63.7357 28.7689 63.2749 28.7461 63.2432 28.7041C63.2257 28.7618 63.1614 29.0934 63.1614 29.0934L61.7978 35.1221L61.6807 35.6334L61.4541 37.3058C61.4541 37.8019 61.5515 38.2068 61.7455 38.5492C62.3667 39.6348 64.1388 39.7974 65.1413 39.7974C66.4329 39.7974 67.6446 39.523 68.4634 39.022C69.8846 38.1822 70.2565 36.8696 70.5881 35.7031L70.7418 35.1046C70.7418 35.1046 72.1175 29.5493 72.3512 28.8266C72.3602 28.7863 72.3638 28.7653 72.3758 28.7461ZM77.0564 33.2277C76.7248 33.2277 76.1188 33.3081 75.5744 33.575C75.3768 33.6764 75.19 33.7935 74.9929 33.9102L75.1708 33.2679L75.0734 33.1598C73.9189 33.3935 73.6606 33.4248 72.5942 33.575L72.5048 33.6344C72.381 34.661 72.2711 35.4329 71.8121 37.4508C71.6373 38.1945 71.4559 38.9453 71.274 39.6872L71.3232 39.7815C72.4159 39.7239 72.7475 39.7239 73.6973 39.7395L73.7741 39.6559C73.8948 39.0378 73.9105 38.893 74.1777 37.6412C74.3033 37.0476 74.5652 35.7435 74.6944 35.2791C74.9317 35.1692 75.1659 35.061 75.3894 35.061C75.9217 35.061 75.8568 35.5254 75.8363 35.7104C75.8135 36.021 75.6195 37.0356 75.4206 37.9066L75.2879 38.4689C75.1954 38.8841 75.0939 39.2877 75.0014 39.6993L75.0416 39.7815C76.1188 39.7239 76.4472 39.7239 77.367 39.7395L77.4752 39.6559C77.6415 38.6906 77.6902 38.4322 77.9851 37.0266L78.1335 36.3808C78.4218 35.1169 78.5666 34.476 78.3485 33.954C78.1179 33.3689 77.5646 33.2277 77.0564 33.2277ZM82.2852 34.551C81.7127 34.661 81.3475 34.7343 80.9846 34.7816C80.6248 34.8393 80.274 34.8916 79.7207 34.9685L79.6769 35.0082L79.6367 35.04C79.579 35.452 79.5388 35.8082 79.4624 36.227C79.3975 36.6601 79.2979 37.1522 79.1356 37.8592C79.0101 38.4005 78.9452 38.5891 78.8737 38.7795C78.804 38.9698 78.7271 39.1549 78.5859 39.6872L78.619 39.7363L78.6467 39.7815C79.1638 39.7569 79.5021 39.7395 79.8498 39.7363C80.1971 39.7238 80.5569 39.7363 81.1138 39.7395L81.1625 39.6997L81.2148 39.6559C81.2952 39.1759 81.3073 39.0467 81.3565 38.8125C81.4052 38.5614 81.4892 38.2136 81.6952 37.2849C81.7927 36.8487 81.9013 36.4138 82.0023 35.9687C82.1073 35.5253 82.2172 35.0887 82.3218 34.6525L82.3062 34.5997L82.2852 34.551ZM82.2974 32.7668C81.7772 32.4597 80.8641 32.5572 80.2495 32.9813C79.6368 33.3969 79.5671 33.9869 80.0855 34.298C80.5968 34.5965 81.5135 34.5076 82.1226 34.0799C82.734 33.6553 82.8105 33.0707 82.2974 32.7668ZM85.4436 39.8777C86.4961 39.8777 87.575 39.5876 88.3871 38.7269C89.0119 38.0287 89.2984 36.9901 89.3976 36.5624C89.7207 35.1447 89.4691 34.4828 89.1531 34.0796C88.6731 33.4651 87.8248 33.268 86.9448 33.268C86.4157 33.268 85.1553 33.3203 84.1707 34.228C83.4637 34.8828 83.1369 35.7713 82.9398 36.6231C82.741 37.4911 82.5121 39.0536 83.949 39.635C84.3924 39.8254 85.0315 39.8777 85.4436 39.8777ZM85.3613 36.6879C85.604 35.6144 85.8905 34.7134 86.6217 34.7134C87.1947 34.7134 87.2362 35.3838 86.9815 36.4609C86.9359 36.7 86.7267 37.589 86.4438 37.9675C86.2463 38.2468 86.0125 38.4162 85.7542 38.4162C85.6773 38.4162 85.2201 38.4162 85.213 37.7373C85.2094 37.4021 85.2778 37.0598 85.3613 36.6879ZM92.0287 39.7396L92.1109 39.6561C92.2276 39.038 92.2468 38.8927 92.5051 37.6413C92.6343 37.0478 92.9016 35.7436 93.0271 35.2793C93.2649 35.1689 93.4951 35.0607 93.7257 35.0607C94.2544 35.0607 94.1901 35.5251 94.1691 35.7101C94.1498 36.0212 93.9559 37.0353 93.7534 37.9063L93.6278 38.4686C93.5317 38.8842 93.4271 39.2874 93.3346 39.6994L93.3749 39.7817C94.4555 39.724 94.7715 39.724 95.6967 39.7396L95.8084 39.6561C95.9706 38.6903 96.0144 38.4319 96.3184 37.0268L96.4632 36.3805C96.7528 35.1166 96.8994 34.4761 96.6848 33.9541C96.4475 33.3691 95.8906 33.2278 95.3896 33.2278C95.0576 33.2278 94.4484 33.3078 93.9072 33.5751C93.7136 33.6765 93.5197 33.7932 93.3293 33.9103L93.4951 33.2681L93.4061 33.1594C92.2522 33.3936 91.9885 33.4249 90.9234 33.5751L90.8416 33.6345C90.7125 34.6611 90.6074 35.4326 90.1484 37.4509C89.9737 38.1946 89.7922 38.9454 89.6108 39.6874L89.6595 39.7817C90.754 39.724 91.0807 39.724 92.0287 39.7396ZM99.9687 39.7814C100.037 39.4498 100.44 37.4842 100.444 37.4842C100.444 37.4842 100.787 36.0419 100.808 35.9897C100.808 35.9897 100.917 35.8395 101.025 35.78H101.184C102.685 35.78 104.38 35.78 105.709 34.8026C106.613 34.1322 107.231 33.1422 107.507 31.9391C107.579 31.6441 107.631 31.2933 107.631 30.9424C107.631 30.4816 107.539 30.0258 107.272 29.6696C106.594 28.7216 105.245 28.7042 103.687 28.697C103.682 28.697 102.919 28.7042 102.919 28.7042C100.926 28.7288 100.126 28.7216 99.7975 28.6814C99.7698 28.8266 99.7175 29.085 99.7175 29.085C99.7175 29.085 99.0033 32.395 99.0033 32.4003C99.0033 32.4003 97.2942 39.4377 97.2138 39.7694C98.9546 39.7484 99.6684 39.7484 99.9687 39.7814ZM101.292 33.9016C101.292 33.9016 102.051 30.5983 102.048 30.6108L102.072 30.4414L102.083 30.3123L102.387 30.3435C102.387 30.3435 103.953 30.4781 103.989 30.4816C104.607 30.7208 104.862 31.3371 104.684 32.1416C104.522 32.8768 104.045 33.4949 103.432 33.7934C102.928 34.0464 102.31 34.0674 101.673 34.0674H101.261L101.292 33.9016ZM106.02 36.7491C105.819 37.6046 105.589 39.167 107.018 39.7239C107.474 39.9179 107.883 39.9755 108.298 39.9545C108.736 39.9308 109.143 39.711 109.519 39.3945C109.485 39.5246 109.451 39.6546 109.417 39.7851L109.482 39.8687C110.51 39.8254 110.829 39.8254 111.944 39.8339L112.045 39.757C112.207 38.8006 112.361 37.8718 112.783 36.0421C112.989 35.1656 113.195 34.2977 113.406 33.4248L113.373 33.3287C112.223 33.5419 111.915 33.5875 110.809 33.7444L110.725 33.8128C110.714 33.9017 110.702 33.9871 110.691 34.0724C110.519 33.7945 110.27 33.5571 109.885 33.4092C109.393 33.2157 108.237 33.4651 107.244 34.3697C106.545 35.0155 106.21 35.9004 106.02 36.7491ZM108.436 36.8014C108.682 35.7471 108.965 34.855 109.698 34.855C110.162 34.855 110.406 35.2827 110.356 36.0121C110.317 36.194 110.274 36.3858 110.224 36.6025C110.15 36.9158 110.071 37.2265 109.994 37.5375C109.915 37.7503 109.823 37.9509 109.723 38.0846C109.534 38.3518 109.085 38.5176 108.827 38.5176C108.754 38.5176 108.301 38.5176 108.286 37.8508C108.282 37.5187 108.351 37.1768 108.436 36.8014ZM121.053 33.3202L120.964 33.2188C119.826 33.4494 119.62 33.486 118.574 33.6273L118.497 33.7041C118.494 33.7166 118.49 33.7359 118.485 33.7533L118.482 33.7359C117.703 35.5321 117.726 35.1446 117.092 36.5587C117.088 36.4943 117.088 36.4541 117.085 36.3857L116.926 33.3202L116.827 33.2188C115.634 33.4494 115.606 33.486 114.505 33.6273L114.419 33.7041C114.407 33.7408 114.407 33.781 114.4 33.8248L114.407 33.8404C114.544 34.5439 114.511 34.387 114.65 35.4972C114.714 36.042 114.8 36.59 114.864 37.1281C114.973 38.0287 115.033 38.472 115.166 39.8463C114.422 41.0736 114.246 41.538 113.53 42.6151L113.535 42.6258L113.031 43.4231C112.974 43.5072 112.921 43.5648 112.848 43.5894C112.767 43.6292 112.663 43.6363 112.518 43.6363H112.238L111.823 45.0174L113.247 45.0419C114.084 45.0384 114.609 44.6473 114.892 44.1217L115.788 42.5869H115.774L115.868 42.4788C116.47 41.1818 121.053 33.3202 121.053 33.3202ZM106.02 51.4579H105.416L107.652 44.0607H108.394L108.63 43.2987L108.652 44.1461C108.625 44.6699 109.037 45.1342 110.119 45.0574H111.371L111.802 43.633H111.331C111.06 43.633 110.934 43.5646 110.95 43.418L110.927 42.5559H108.609V42.5603C107.859 42.576 105.621 42.6323 105.168 42.753C104.62 42.8942 104.042 43.3098 104.042 43.3098L104.269 42.5469H102.1L101.648 44.0607L99.382 51.571H98.9422L98.5109 52.9851H102.83L102.685 53.4566H104.814L104.955 52.9851H105.552L106.02 51.4579ZM104.248 45.5637C103.901 45.6598 103.254 45.9512 103.254 45.9512L103.829 44.0607H105.552L105.136 45.4381C105.136 45.4381 104.604 45.4694 104.248 45.5637ZM104.281 48.2645C104.281 48.2645 103.74 48.3325 103.383 48.4129C103.033 48.5193 102.375 48.8545 102.375 48.8545L102.968 46.8871H104.7L104.281 48.2645ZM103.315 51.4753H101.587L102.088 49.815H103.811L103.315 51.4753ZM107.478 46.8871H109.969L109.611 48.0464H107.087L106.708 49.3139H108.916L107.244 51.6688C107.127 51.8418 107.022 51.903 106.905 51.9517C106.788 52.0112 106.634 52.0809 106.456 52.0809H105.844L105.423 53.4691H107.025C107.858 53.4691 108.35 53.0901 108.714 52.5927L109.861 51.023L110.107 52.6168C110.159 52.9153 110.374 53.0901 110.519 53.158C110.679 53.2385 110.845 53.3766 111.079 53.3971C111.331 53.4079 111.512 53.4164 111.633 53.4164H112.42L112.893 51.8628H112.582C112.404 51.8628 112.097 51.8329 112.045 51.777C111.993 51.7091 111.993 51.6045 111.964 51.4454L111.715 49.848H110.691L111.14 49.3139H113.66L114.047 48.0464H111.715L112.078 46.8871H114.403L114.835 45.4574H107.902L107.478 46.8871ZM86.4368 51.7981L87.0182 49.8638H89.408L89.8446 48.4251H87.4526L87.8178 47.2345H90.1552L90.5883 45.8414H84.7397L84.3156 47.2345H85.6443L85.2899 48.4251H83.9576L83.516 49.8884H84.8443L84.0693 52.4475C83.9648 52.7863 84.1185 52.9155 84.2159 53.0728C84.3156 53.2261 84.4166 53.3275 84.6437 53.3852C84.8778 53.4375 85.0383 53.4688 85.2564 53.4688H87.9505L88.4305 51.875L87.2363 52.039C87.0057 52.039 86.367 52.0113 86.4368 51.7981ZM86.7109 42.5382L86.1053 43.6328C85.9756 43.8719 85.859 44.0202 85.754 44.0886C85.6615 44.1463 85.4782 44.1704 85.2127 44.1704H84.8968L84.4744 45.5707H85.5238C86.0284 45.5707 86.4159 45.3856 86.6009 45.2931C86.7998 45.1867 86.8521 45.2475 87.0058 45.0991L87.3602 44.7921H90.6372L91.072 43.3342H88.6733L89.0921 42.5382H86.7109ZM91.5486 51.8263C91.4928 51.7458 91.533 51.6041 91.6184 51.3092L92.514 48.3446H95.7002C96.1646 48.3379 96.4998 48.3326 96.7179 48.3169C96.9521 48.2923 97.2068 48.2088 97.4844 48.0586C97.7709 47.9013 97.9174 47.7355 98.0412 47.5451C98.1794 47.3551 98.401 46.9395 98.5914 46.2986L99.7172 42.547L96.4108 42.5662C96.4108 42.5662 95.3927 42.7164 94.9444 42.8822C94.4921 43.0672 93.8459 43.5839 93.8459 43.5839L94.1444 42.5555H92.1019L89.2425 52.039C89.141 52.4073 89.0731 52.6745 89.0574 52.835C89.0521 53.0079 89.2755 53.1791 89.4203 53.3083C89.5915 53.4374 89.8445 53.4164 90.0872 53.4374C90.3424 53.4567 90.7053 53.4687 91.2063 53.4687H92.7759L93.2577 51.8419L91.8526 51.9746C91.7024 51.9746 91.5938 51.8942 91.5486 51.8263ZM93.0919 46.3424H96.4385L96.2258 47.0092C96.1959 47.0248 96.1243 46.9761 95.7838 47.0164H92.8859L93.0919 46.3424ZM93.7623 44.1059H97.1371L96.8944 44.9091C96.8944 44.9091 95.3038 44.8934 95.049 44.9403C93.9281 45.1343 93.2734 45.7332 93.2734 45.7332L93.7623 44.1059ZM96.3007 49.2422C96.273 49.3419 96.2292 49.4027 96.168 49.4483C96.1 49.4921 95.9901 49.5077 95.8261 49.5077H95.3492L95.3773 48.6956H93.3939L93.3134 52.6657C93.3103 52.9522 93.338 53.118 93.5476 53.2508C93.7572 53.4166 94.403 53.4376 95.2723 53.4376H96.5152L96.964 51.9515L95.8819 52.011L95.5221 52.032C95.473 52.011 95.4261 51.9918 95.3738 51.9395C95.3282 51.8943 95.2513 51.922 95.2638 51.6355L95.2723 50.6179L96.4071 50.571C97.0198 50.571 97.2817 50.3716 97.5052 50.1817C97.7184 49.9998 97.7881 49.7906 97.8686 49.5077L98.0589 48.6067H96.4996L96.3007 49.2422Z" fill="#FEFEFE"/>
</g>
<defs>
<clipPath id="clip0_48_537">
<rect width="73.6" height="46" fill="white" transform="translate(53.2 17)"/>
</clipPath>
</defs>
</svg>
