<svg width="180" height="80" viewBox="0 0 180 80" fill="none" xmlns="http://www.w3.org/2000/svg">
<path d="M57.2391 50.1804H52.3049L55.3911 30.5261H60.325L57.2391 50.1804Z" fill="#00579F"/>
<path d="M75.128 31.0081C74.1548 30.6105 72.6112 30.1714 70.7025 30.1714C65.8298 30.1714 62.3986 32.8476 62.3775 36.6737C62.337 39.4966 64.8342 41.0645 66.7019 42.0058C68.6108 42.9676 69.2598 43.5954 69.2598 44.4527C69.2403 45.7694 67.7172 46.3763 66.2966 46.3763C64.3267 46.3763 63.2712 46.0634 61.6671 45.3309L61.0174 45.0169L60.3269 49.4288C61.4842 49.9718 63.6162 50.4537 65.8298 50.4748C71.0071 50.4748 74.3777 47.84 74.4176 43.7627C74.4373 41.5253 73.1187 39.8109 70.2759 38.41C68.5501 37.5107 67.4933 36.9044 67.4933 35.9842C67.5135 35.1478 68.3872 34.291 70.3352 34.291C71.9393 34.249 73.1179 34.6461 74.0107 35.0435L74.457 35.2522L75.128 31.0081Z" fill="#00579F"/>
<path d="M81.6816 43.2166C82.0879 42.0875 83.6515 37.7175 83.6515 37.7175C83.631 37.7595 84.057 36.5675 84.3007 35.8358L84.6455 37.5294C84.6455 37.5294 85.5799 42.2339 85.7828 43.2166C85.0117 43.2166 82.6561 43.2166 81.6816 43.2166ZM87.7722 30.5251H83.9556C82.7786 30.5251 81.8845 30.8803 81.3767 32.1559L74.0476 50.1791H79.2249C79.2249 50.1791 80.0772 47.7533 80.2604 47.2309C80.8284 47.2309 85.8648 47.2309 86.5955 47.2309C86.7371 47.9209 87.1842 50.1791 87.1842 50.1791H91.7528L87.7722 30.5251Z" fill="#00579F"/>
<path d="M48.1864 30.5261L43.3542 43.9284L42.8262 41.2103C41.9328 38.0739 39.131 34.6663 36.0044 32.9719L40.4305 50.1595H45.6482L53.4039 30.5261H48.1864Z" fill="#00579F"/>
<path d="M38.8643 30.5251H30.9257L30.8445 30.9223C37.0371 32.5533 41.1383 36.4847 42.8233 41.2102L41.0976 32.1773C40.8134 30.922 39.9403 30.5666 38.8643 30.5251Z" fill="#FAA61A"/>
<path d="M133.355 29.3616H121.643V50.6426H133.355V29.3616Z" fill="#FF5F00"/>
<path d="M122.389 40.0007C122.389 35.6768 124.397 31.8417 127.483 29.3602C125.215 27.5555 122.352 26.4651 119.229 26.4651C111.83 26.4651 105.844 32.5185 105.844 40.0007C105.844 47.4829 111.83 53.5363 119.229 53.5363C122.352 53.5363 125.215 52.446 127.483 50.6412C124.397 48.1973 122.389 44.3246 122.389 40.0007Z" fill="#EB001B"/>
<path d="M149.156 39.9992C149.156 47.4814 143.17 53.5349 135.771 53.5349C132.648 53.5349 129.785 52.4445 127.517 50.6397C130.64 48.1582 132.611 44.3231 132.611 39.9992C132.611 35.6754 130.603 31.8403 127.517 29.3587C129.785 27.554 132.648 26.4636 135.771 26.4636C143.17 26.4636 149.156 32.5547 149.156 39.9992Z" fill="#F79E1B"/>
</svg>
