<svg width="180" height="80" viewBox="0 0 180 80" fill="none" xmlns="http://www.w3.org/2000/svg">
<path d="M53.1879 54.9418V46.431H50.6909V43.7969H58.7224V46.431H56.2253V54.9418H53.1879ZM60.2068 54.9418V43.7969H63.3813C64.6247 43.7969 65.4911 43.8541 65.9809 43.9684C66.4707 44.0824 66.8933 44.2741 67.2484 44.543C67.6495 44.8473 67.9578 45.2356 68.1734 45.7076C68.389 46.1797 68.497 46.7 68.497 47.2682C68.497 48.1311 68.2852 48.8327 67.8614 49.3731C67.4374 49.9137 66.8196 50.2726 66.0075 50.4505L69.0449 54.9417H65.6117L63.0537 50.5795V54.9417L60.2068 54.9418ZM63.0539 49.065H63.6172C64.272 49.065 64.7501 48.9535 65.0522 48.73C65.3541 48.5068 65.5052 48.1566 65.5052 47.6792C65.5052 47.1208 65.3646 46.724 65.0827 46.488C64.8013 46.2521 64.3278 46.1339 63.663 46.1339H63.0539V49.065Z" fill="#00AFD8"/>
<path d="M68.8928 54.9419L72.7373 43.797H76.5436L80.3956 54.9419H77.3731L76.8099 52.9474H72.4935L71.915 54.9419H68.8928ZM73.1483 50.7778H76.1705L75.0363 47.1008C75.0008 46.9894 74.9526 46.8091 74.8917 46.5604C74.8308 46.312 74.7522 45.9923 74.6558 45.6013C74.5929 45.8631 74.5282 46.1245 74.4617 46.3855C74.4007 46.6249 74.336 46.8634 74.2675 47.1008L73.1483 50.7778ZM81.4613 54.9419V43.797H84.3921L88.6017 49.5294C88.6831 49.6462 88.8164 49.8808 89.0015 50.2335C89.1866 50.5862 89.3911 51.0064 89.6145 51.4935C89.5591 51.0836 89.5147 50.6723 89.4813 50.2601C89.4551 49.9411 89.4411 49.6211 89.4393 49.301V43.797H92.355V54.9419H89.4393L85.2296 49.187C85.1432 49.0702 85.0073 48.8356 84.8224 48.4827C84.6371 48.13 84.4354 47.7151 84.2169 47.2381C84.2779 47.7051 84.3223 48.1184 84.3502 48.479C84.3763 48.798 84.3902 49.118 84.3921 49.4381V54.9419H81.4613ZM95.2402 51.3413C95.6921 51.8541 96.137 52.237 96.5762 52.4909C97.0151 52.7447 97.453 52.8715 97.8897 52.8715C98.2956 52.8715 98.6292 52.7624 98.8906 52.5439C99.1519 52.3259 99.2826 52.0491 99.2826 51.7142C99.2826 51.3439 99.1696 51.0583 98.944 50.8581C98.7179 50.6574 98.2065 50.4508 97.4098 50.2374C96.3189 49.9434 95.5471 49.5598 95.0956 49.0878C94.6437 48.6159 94.4182 47.969 94.4182 47.1464C94.4182 46.0806 94.7746 45.2119 95.4879 44.5393C96.2008 43.8669 97.1256 43.5305 98.2626 43.5305C98.8765 43.5305 99.4589 43.613 100.01 43.7778C100.56 43.9428 101.082 44.1928 101.574 44.5277L100.622 46.7125C100.277 46.4185 99.9232 46.1961 99.5605 46.0463C99.1975 45.8968 98.8384 45.8218 98.4833 45.8218C98.118 45.8218 97.821 45.9096 97.5926 46.0845C97.3643 46.2595 97.2501 46.4841 97.2501 46.7581C97.2501 47.0371 97.3502 47.2608 97.5508 47.428C97.7515 47.5953 98.1385 47.7554 98.7117 47.9078L98.8486 47.9457C100.087 48.2808 100.902 48.6487 101.292 49.0496C101.556 49.3239 101.757 49.6524 101.894 50.0355C102.031 50.4187 102.099 50.8438 102.099 51.3105C102.099 52.4935 101.711 53.4436 100.934 54.1619C100.158 54.8797 99.1227 55.2388 97.8287 55.2388C97.0523 55.2388 96.3455 55.1068 95.7084 54.8429C95.0713 54.5791 94.4589 54.1655 93.8697 53.6022L95.2402 51.3413ZM103.804 54.9419V43.797H110.633V46.2407H106.766V48.1743H110.412V50.5648H106.766V54.9419H103.804ZM112.285 54.9419V43.797H119.113V46.2407H115.246V48.1743H118.893V50.5648H115.246V52.4451H119.113V54.9417L112.285 54.9419ZM121.123 54.9419V43.797H124.298C125.541 43.797 126.408 43.8542 126.897 43.9685C127.387 44.0825 127.81 44.2742 128.165 44.543C128.566 44.8474 128.874 45.2357 129.09 45.7076C129.306 46.1798 129.414 46.7001 129.414 47.2683C129.414 48.1312 129.202 48.8328 128.778 49.3732C128.354 49.9138 127.736 50.2727 126.924 50.4506L129.962 54.9417H126.528L123.97 50.5796V54.9417L121.123 54.9419ZM123.97 49.0651H124.534C125.188 49.0651 125.667 48.9536 125.968 48.7301C126.27 48.5069 126.421 48.1567 126.421 47.6793C126.421 47.1209 126.281 46.7241 125.999 46.488C125.718 46.2522 125.244 46.134 124.579 46.134H123.97V49.0651Z" fill="#00AFD8"/>
<path d="M85.5266 25.6784L87.5496 33.3316C87.6451 33.6763 87.733 34.0354 87.8136 34.4092C87.8943 34.7831 87.9785 35.212 88.0666 35.6957C88.1766 35.1238 88.27 34.653 88.3469 34.2827C88.4238 33.9125 88.499 33.5953 88.5723 33.3316L90.4635 25.6784H94.8952L90.3427 41.7767H86.2744L84.284 34.9041C84.2105 34.662 84.0898 34.1893 83.9212 33.4856C83.8477 33.1706 83.7892 32.9248 83.7453 32.7489C83.7086 32.9028 83.6574 33.1192 83.5914 33.3977C83.4228 34.1087 83.2946 34.611 83.2066 34.9041L81.2492 41.7767H77.1697L72.6283 25.6784H77.0596L78.9069 33.3755C78.9949 33.7715 79.0811 34.1674 79.1653 34.5632C79.2495 34.959 79.3284 35.3659 79.4018 35.7837C79.471 35.4606 79.5425 35.138 79.6163 34.8159C79.7277 34.3348 79.8431 33.8546 79.9626 33.3753L81.986 25.6782H85.5266V25.6784ZM96.5225 41.7767V25.6784H100.954V41.7767H96.5225ZM104.495 41.7767V25.6784H109.08C110.876 25.6784 112.128 25.7607 112.835 25.9257C113.542 26.0905 114.153 26.3675 114.666 26.7558C115.245 27.1957 115.69 27.7565 116.002 28.4383C116.314 29.1201 116.469 29.8716 116.469 30.6925C116.469 31.9389 116.163 32.9521 115.551 33.7329C114.939 34.5137 114.047 35.0321 112.874 35.2888L117.261 41.7767H112.302L108.607 35.476V41.7769H104.495V41.7767ZM108.607 33.2878H109.421C110.367 33.2878 111.057 33.1265 111.494 32.804C111.93 32.4815 112.148 31.9756 112.148 31.2865C112.148 30.4802 111.945 29.9065 111.538 29.5656C111.131 29.2249 110.447 29.0543 109.487 29.0543H108.607V33.2878ZM118.932 41.7767V25.6784H128.796V29.2082H123.21V32.0013H128.477V35.454H123.21V38.17H128.796V41.7767H118.932Z" fill="#006E90"/>
<path d="M50.8235 25.5605H70.9082V28.7481H50.8235V25.5605Z" fill="url(#paint0_linear_48_496)"/>
<path d="M50.8235 31.748H70.9082V34.9356H50.8235V31.748Z" fill="url(#paint1_linear_48_496)"/>
<path d="M50.8235 38.498H70.9082V41.6857H50.8235V38.498Z" fill="url(#paint2_linear_48_496)"/>
<defs>
<linearGradient id="paint0_linear_48_496" x1="50.8235" y1="27.1543" x2="70.9082" y2="27.1543" gradientUnits="userSpaceOnUse">
<stop stop-color="#41E700" stop-opacity="0"/>
<stop offset="0.736" stop-color="#3ACD00"/>
<stop offset="0.781" stop-color="#36BE00"/>
<stop offset="0.926" stop-color="#299100"/>
<stop offset="1" stop-color="#248000"/>
</linearGradient>
<linearGradient id="paint1_linear_48_496" x1="50.8235" y1="33.3418" x2="70.9082" y2="33.3418" gradientUnits="userSpaceOnUse">
<stop stop-color="#41E700" stop-opacity="0"/>
<stop offset="0.736" stop-color="#3ACD00"/>
<stop offset="0.781" stop-color="#36BE00"/>
<stop offset="0.926" stop-color="#299100"/>
<stop offset="1" stop-color="#248000"/>
</linearGradient>
<linearGradient id="paint2_linear_48_496" x1="50.8235" y1="40.0918" x2="70.9082" y2="40.0918" gradientUnits="userSpaceOnUse">
<stop stop-color="#41E700" stop-opacity="0"/>
<stop offset="0.736" stop-color="#3ACD00"/>
<stop offset="0.781" stop-color="#36BE00"/>
<stop offset="0.926" stop-color="#299100"/>
<stop offset="1" stop-color="#248000"/>
</linearGradient>
</defs>
</svg>
